<svg width="49" height="343" viewBox="0 0 49 343" fill="none" xmlns="http://www.w3.org/2000/svg">
<path opacity="0.3" d="M1 61.6154V62.6154H2H27.6292C33.1438 62.6154 37.8462 60.922 41.6707 57.5069C45.517 54.0725 47.4412 49.652 47.4412 44.3269C47.4412 38.3675 45.0057 33.7476 40.1953 30.5663C43.5243 27.4821 45.1975 23.53 45.1975 18.7775C45.1975 13.6192 43.2992 9.34071 39.5125 6.0225C35.8026 2.66403 31.2147 1 25.817 1H2H1V2V61.6154ZM29.6881 23.5163L29.6799 23.5244L29.6718 23.5328C28.6642 24.5746 27.4049 25.1016 25.817 25.1016H14.9085V13.9863H25.817C27.4722 13.9863 28.7568 14.5199 29.7581 15.5551C30.7709 16.6023 31.289 17.9075 31.289 19.544C31.289 21.1661 30.7523 22.466 29.6881 23.5163ZM31.9168 39.3175L31.9242 39.3252L31.9318 39.3326C33.0505 40.4367 33.619 41.8203 33.619 43.5604C33.619 45.3621 33.0466 46.8064 31.9242 47.966C30.8059 49.0661 29.3998 49.6291 27.6292 49.6291H14.9085V37.5769H27.6292C29.3905 37.5769 30.7942 38.1614 31.9168 39.3175Z" stroke="white" stroke-width="2"/>
<path opacity="0.3" d="M1 154.615V155.615H2H27.6292C33.1438 155.615 37.8462 153.922 41.6707 150.507C45.517 147.072 47.4412 142.652 47.4412 137.327C47.4412 131.368 45.0057 126.748 40.1953 123.566C43.5243 120.482 45.1975 116.53 45.1975 111.777C45.1975 106.619 43.2992 102.341 39.5125 99.0225C35.8026 95.664 31.2147 94 25.817 94H2H1V95V154.615ZM29.6881 116.516L29.6799 116.524L29.6718 116.533C28.6642 117.575 27.4049 118.102 25.817 118.102H14.9085V106.986H25.817C27.4722 106.986 28.7568 107.52 29.7581 108.555C30.7709 109.602 31.289 110.907 31.289 112.544C31.289 114.166 30.7523 115.466 29.6881 116.516ZM31.9168 132.318L31.9242 132.325L31.9318 132.333C33.0505 133.437 33.619 134.82 33.619 136.56C33.619 138.362 33.0466 139.806 31.9242 140.966C30.8059 142.066 29.3998 142.629 27.6292 142.629H14.9085V130.577H27.6292C29.3905 130.577 30.7942 131.161 31.9168 132.318Z" stroke="white" stroke-width="2"/>
<path opacity="0.3" d="M1 247.615V248.615H2H27.6292C33.1438 248.615 37.8462 246.922 41.6707 243.507C45.517 240.072 47.4412 235.652 47.4412 230.327C47.4412 224.368 45.0057 219.748 40.1953 216.566C43.5243 213.482 45.1975 209.53 45.1975 204.777C45.1975 199.619 43.2992 195.341 39.5125 192.022C35.8026 188.664 31.2147 187 25.817 187H2H1V188V247.615ZM29.6881 209.516L29.6799 209.524L29.6718 209.533C28.6642 210.575 27.4049 211.102 25.817 211.102H14.9085V199.986H25.817C27.4722 199.986 28.7568 200.52 29.7581 201.555C30.7709 202.602 31.289 203.907 31.289 205.544C31.289 207.166 30.7523 208.466 29.6881 209.516ZM31.9168 225.318L31.9242 225.325L31.9318 225.333C33.0505 226.437 33.619 227.82 33.619 229.56C33.619 231.362 33.0466 232.806 31.9242 233.966C30.8059 235.066 29.3998 235.629 27.6292 235.629H14.9085V223.577H27.6292C29.3905 223.577 30.7942 224.161 31.9168 225.318Z" stroke="white" stroke-width="2"/>
<path opacity="0.3" d="M1 340.615V341.615H2H27.6292C33.1438 341.615 37.8462 339.922 41.6707 336.507C45.517 333.072 47.4412 328.652 47.4412 323.327C47.4412 317.368 45.0057 312.748 40.1953 309.566C43.5243 306.482 45.1975 302.53 45.1975 297.777C45.1975 292.619 43.2992 288.341 39.5125 285.022C35.8026 281.664 31.2147 280 25.817 280H2H1V281V340.615ZM29.6881 302.516L29.6799 302.524L29.6718 302.533C28.6642 303.575 27.4049 304.102 25.817 304.102H14.9085V292.986H25.817C27.4722 292.986 28.7568 293.52 29.7581 294.555C30.7709 295.602 31.289 296.907 31.289 298.544C31.289 300.166 30.7523 301.466 29.6881 302.516ZM31.9168 318.318L31.9242 318.325L31.9318 318.333C33.0505 319.437 33.619 320.82 33.619 322.56C33.619 324.362 33.0466 325.806 31.9242 326.966C30.8059 328.066 29.3998 328.629 27.6292 328.629H14.9085V316.577H27.6292C29.3905 316.577 30.7942 317.161 31.9168 318.318Z" stroke="white" stroke-width="2"/>
</svg>
